<svg width="16" height="16" viewBox="0 0 16 16" fill="none" xmlns="http://www.w3.org/2000/svg">
<path fill-rule="evenodd" clip-rule="evenodd" d="M13.7783 0.540074C13.0548 -0.18041 11.8823 -0.179968 11.1593 0.541061L5.56772 6.11876C5.1205 6.56479 4.85758 7.16187 4.83097 7.79185L4.75137 9.67636C4.71512 10.5345 5.40337 11.2499 6.26519 11.2499L8.11928 11.25C8.8 11.25 9.4519 10.9762 9.92721 10.4906L15.4738 4.80603C16.1819 4.08258 16.1744 2.92614 15.4571 2.2118L13.7783 0.540074ZM11.8739 1.25264C12.2025 0.924895 12.7355 0.924694 13.0643 1.25219L14.7431 2.92392C15.0691 3.24862 15.0725 3.77427 14.7507 4.10311L13.6367 5.24128L10.7534 2.37006L11.8739 1.25264ZM10.0394 3.08217L6.28228 6.83033C6.01395 7.09795 5.85619 7.4562 5.84023 7.83419L5.76063 9.7187C5.74854 10.0047 5.97796 10.2432 6.26523 10.2432L8.11933 10.2433C8.52776 10.2433 8.9189 10.079 9.20408 9.78763L12.9313 5.96198L10.0394 3.08217Z" fill="black"/>
<path d="M14.5 8.25V10C14.5 12.7614 12.2614 15 9.5 15H6C3.23858 15 1 12.7614 1 10V6.5C1 3.73858 3.23858 1.5 6 1.5H7.75" stroke="black" stroke-linecap="round"/>
</svg>
