<svg width="16" height="15" viewBox="0 0 16 15" fill="none" xmlns="http://www.w3.org/2000/svg">
<path d="M8 4.55007C8.33137 4.55007 8.6 4.28144 8.6 3.95007C8.6 3.6187 8.33137 3.35007 8 3.35007V4.55007ZM6.85061 9.30523L6.67821 9.87992L6.85061 9.30523ZM14.4 5.95007V6.06199H15.6V5.95007H14.4ZM1.6 6.06199V5.95007H0.4V6.06199H1.6ZM13.4023 7.40295L8.97698 8.73053L9.32179 9.87992L13.7471 8.55234L13.4023 7.40295ZM7.02302 8.73053L2.59772 7.40295L2.2529 8.55234L6.67821 9.87992L7.02302 8.73053ZM3 4.55007H8V3.35007H3V4.55007ZM11.5 4.55007H13V3.35007H11.5V4.55007ZM9.80742 4.55007H11.5V3.35007H9.80742V4.55007ZM8.97698 8.73053C8.33969 8.92172 7.66031 8.92172 7.02302 8.73053L6.67821 9.87992C7.54042 10.1386 8.45958 10.1386 9.32179 9.87992L8.97698 8.73053ZM0.4 6.06199C0.4 7.21017 1.15314 8.22241 2.2529 8.55234L2.59772 7.40295C2.00554 7.22529 1.6 6.68024 1.6 6.06199H0.4ZM14.4 6.06199C14.4 6.68024 13.9945 7.22529 13.4023 7.40295L13.7471 8.55234C14.8469 8.22241 15.6 7.21017 15.6 6.06199H14.4ZM15.6 5.95007C15.6 4.51413 14.4359 3.35007 13 3.35007V4.55007C13.7732 4.55007 14.4 5.17687 14.4 5.95007H15.6ZM1.6 5.95007C1.6 5.17688 2.2268 4.55007 3 4.55007V3.35007C1.56406 3.35007 0.4 4.51413 0.4 5.95007H1.6Z" fill="black"/>
<path d="M8 7.55021L8 6.35022" stroke="black" stroke-width="1.2" stroke-linecap="round" stroke-linejoin="round"/>
<path d="M2.18337 10.3C2.18337 9.96865 1.91474 9.70002 1.58337 9.70002C1.252 9.70002 0.983374 9.96865 0.983374 10.3H2.18337ZM13.8167 7.54993V10.1499H15.0167V7.54993H13.8167ZM10.4167 13.5499H5.43323V14.7499H10.4167V13.5499ZM5.43323 13.5499C3.63839 13.5499 2.18337 12.0949 2.18337 10.3H0.983374C0.983374 12.7576 2.97564 14.7499 5.43323 14.7499V13.5499ZM13.8167 10.1499C13.8167 12.0277 12.2945 13.5499 10.4167 13.5499V14.7499C12.9572 14.7499 15.0167 12.6904 15.0167 10.1499H13.8167Z" fill="black"/>
<path d="M10.3333 3.95003V3.55005C10.3333 2.44548 9.43786 1.55005 8.33329 1.55005H7.66663C6.56206 1.55005 5.66663 2.44548 5.66663 3.55005L5.66663 3.95003" stroke="black" stroke-width="1.2"/>
</svg>
