<svg width="12" height="12" viewBox="0 0 12 12" fill="none" xmlns="http://www.w3.org/2000/svg">
<path fill-rule="evenodd" clip-rule="evenodd" d="M9.02835 0.540074C8.30484 -0.18041 7.13226 -0.179968 6.4093 0.541061L0.817724 6.11876C0.370504 6.56479 0.107577 7.16187 0.0809678 7.79185L0.00136874 9.67636C-0.0348769 10.5345 0.653374 11.2499 1.51519 11.2499L3.36928 11.25C4.05 11.25 4.7019 10.9762 5.17721 10.4906L10.7238 4.80603C11.4319 4.08258 11.4244 2.92614 10.7071 2.2118L9.02835 0.540074ZM7.12386 1.25264C7.45247 0.924895 7.98547 0.924694 8.31433 1.25219L9.99307 2.92392C10.3191 3.24862 10.3225 3.77427 10.0007 4.10311L8.8867 5.24128L6.00345 2.37006L7.12386 1.25264ZM5.28943 3.08217L1.53228 6.83033C1.26395 7.09795 1.10619 7.4562 1.09023 7.83419L1.01063 9.7187C0.998544 10.0047 1.22796 10.2432 1.51523 10.2432L3.36933 10.2433C3.77776 10.2433 4.1689 10.079 4.45408 9.78763L8.18131 5.96198L5.28943 3.08217Z" fill="black"/>
</svg>
