<svg width="17" height="17" viewBox="0 0 17 17" fill="none" xmlns="http://www.w3.org/2000/svg">
<g clip-path="url(#clip0_2723_7053)">
<path fill-rule="evenodd" clip-rule="evenodd" d="M6.31587 1.72135C6.47233 2.0799 6.30851 2.4974 5.94996 2.65387C4.99555 3.07036 4.15769 3.7143 3.50964 4.52941C2.86159 5.34452 2.42308 6.30596 2.23244 7.32969C2.04181 8.35343 2.10485 9.40827 2.41607 10.402C2.72728 11.3957 3.27719 12.2981 4.01771 13.0302C4.75824 13.7623 5.66683 14.3019 6.66406 14.6018C7.66128 14.9016 8.71678 14.9526 9.73827 14.7503C10.7598 14.548 11.7161 14.0985 12.5238 13.4412C13.3314 12.7839 13.9658 11.9387 14.3713 10.9796C14.5237 10.6193 14.9393 10.4507 15.2996 10.6031C15.6599 10.7554 15.8285 11.171 15.6761 11.5314C15.1805 12.7036 14.4052 13.7366 13.418 14.54C12.4309 15.3433 11.262 15.8927 10.0135 16.14C8.76502 16.3872 7.47497 16.3249 6.25613 15.9584C5.0373 15.592 3.9268 14.9325 3.02171 14.0377C2.11663 13.1429 1.44452 12.04 1.06415 10.8254C0.683774 9.61083 0.606719 8.32157 0.839718 7.07035C1.07272 5.81912 1.60868 4.64402 2.40074 3.64778C3.1928 2.65153 4.21685 1.86449 5.38335 1.35544C5.7419 1.19898 6.1594 1.3628 6.31587 1.72135Z" fill="black"/>
<path fill-rule="evenodd" clip-rule="evenodd" d="M7.99912 0.915718C8.13196 0.78288 8.31213 0.708252 8.49999 0.708252C9.52321 0.708252 10.5364 0.909789 11.4817 1.30136C12.4271 1.69293 13.286 2.26686 14.0095 2.99038C14.7331 3.7139 15.307 4.57285 15.6986 5.51818C16.0901 6.46351 16.2917 7.4767 16.2917 8.49992C16.2917 8.89112 15.9745 9.20825 15.5833 9.20825H8.49999C8.10879 9.20825 7.79166 8.89112 7.79166 8.49992V1.41659C7.79166 1.22872 7.86628 1.04856 7.99912 0.915718ZM9.20832 2.16439V7.79158H14.8355C14.7691 7.19759 14.6194 6.61468 14.3897 6.06031C14.0693 5.28686 13.5998 4.58409 13.0078 3.99211C12.4158 3.40014 11.713 2.93056 10.9396 2.61019C10.3852 2.38056 9.80232 2.2308 9.20832 2.16439Z" fill="black"/>
</g>
<defs>
<clipPath id="clip0_2723_7053">
<rect width="17" height="17" fill="white"/>
</clipPath>
</defs>
</svg>
