<svg width="32" height="30" viewBox="0 0 32 30" fill="none" xmlns="http://www.w3.org/2000/svg">
<path d="M0 0H24C28.4183 0 32 3.58172 32 8V30H8C3.58172 30 0 26.4183 0 22V0Z" fill="#FF2525"/>
<path d="M10.7006 12.275C10.0706 11.4792 10.6374 10.3076 11.6524 10.3076H20.3481C21.3631 10.3076 21.9298 11.4792 21.2998 12.275V12.275C20.8282 12.8707 20.5716 13.6082 20.5716 14.368V17.8565C20.5716 20.0657 18.7808 21.8565 16.5716 21.8565H15.4288C13.2196 21.8565 11.4288 20.0657 11.4288 17.8565V14.368C11.4288 13.6082 11.1722 12.8707 10.7006 12.275V12.275Z" stroke="white"/>
<path d="M17.5244 18.2483L17.5244 13.9175" stroke="white" stroke-linecap="round" stroke-linejoin="round"/>
<path d="M14.4766 18.2483L14.4766 13.9175" stroke="white" stroke-linecap="round" stroke-linejoin="round"/>
<path d="M19.0479 10.3085L18.7561 9.47926C18.4744 8.67869 17.7182 8.14307 16.8695 8.14307H15.131C14.2823 8.14307 13.5261 8.67869 13.2444 9.47925L12.9526 10.3085" stroke="white" stroke-linecap="round"/>
</svg>
